# xmcd
#
# Track frame offsets:
#	150
#	16377
#	31149
#	43486
#	55385
#	67255
#	78499
#	91549
#	102927
#	116382
#	130271
#	142052
#	154157
#	167530
#	182478
#	192679
#	206633
#	221218
#	232273
#	246348
#	261799
#	275909
#	290349
#	304074
#	319479
#
# Disc length: 4440
#
# Revision: 2
# Processed by: cddbd v1.5.1PL0 Copyright (c) Steve Scherf et al.
# Submitted via: audiograbber 1.82.02
# Normalized: r1:DSETVAR1
#
DISCID=88115619
DTITLE=Various Artist - 50 Hits From The War Years CD 1
DYEAR=1900
DGENRE=Country
TTITLE0=Glenn Miller - In The Mood
TTITLE1=Vera Lynn - The White Cliffs Of Dova
TTITLE2=Flanigain And Allen - Run, Rabbit, Run
TTITLE3=George Formby - I Did What I Could With My Gas Mask
TTITLE4=Rita Shore - I'll Be Seeing You
TTITLE5=Gracie Fields - Sing As We Go
TTITLE6=Andrews Sisters - The Beer Barrel Polka
TTITLE7=Florence Desmond - The Deepest Shelter In Town
TTITLE8=Joe Loss - Hey Little Hen
TTITLE9=The Two Leslies - Gonna Hang Out The Washing
TTITLE10=George Formby - Imagine Me In the Maginot Line
TTITLE11=Spike Jones - Der Fuhrer's Face
TTITLE12=Jack Hylton - Painting The Clouds With Sunshine
TTITLE13=Harry Leader - Goodnight Wherever You Are
TTITLE14=Irving Berlin - This Is The Army' Mr Jones
TTITLE15=Blue Rockets - Ma, I Miss Your Apple Pie
TTITLE16=Noel Coward - Could You Please Advise Us
TTITLE17=Carol Gibbons - I'm Gonna Get Lit Up
TTITLE18=Alan Breeze - The Fleets In Port Again
TTITLE19=Vera Lyn - We'll Meet Again
TTITLE20=Geralodo - We Must All Stick Together
TTITLE21=Lili Anderson - Lili Marlene
TTITLE22=George Formby - Bless'em All
TTITLE23=Vera Lynn - When The Sound Last all Clear
TTITLE24=Gracie Fields - Wish Me Luck
EXTD=
EXTT0=
EXTT1=
EXTT2=
EXTT3=
EXTT4=
EXTT5=
EXTT6=
EXTT7=
EXTT8=
EXTT9=
EXTT10=
EXTT11=
EXTT12=
EXTT13=
EXTT14=
EXTT15=
EXTT16=
EXTT17=
EXTT18=
EXTT19=
EXTT20=
EXTT21=
EXTT22=
EXTT23=
EXTT24=
PLAYORDER=
